<?xml version="1.0" encoding="UTF-8" standalone="no"?>
<!DOCTYPE svg PUBLIC "-//W3C//DTD SVG 1.1//EN" "http://www.w3.org/Graphics/SVG/1.1/DTD/svg11.dtd">
<svg width="100%" height="100%" viewBox="0 0 581 68" version="1.1" xmlns="http://www.w3.org/2000/svg" xmlns:xlink="http://www.w3.org/1999/xlink" xml:space="preserve" xmlns:serif="http://www.serif.com/" style="fill-rule:evenodd;clip-rule:evenodd;stroke-linejoin:round;stroke-miterlimit:2;">
    <g id="Artboard1" transform="matrix(0.906545,0,0,0.140872,0,0)">
        <rect x="0" y="0" width="640" height="480" style="fill:none;"/>
        <clipPath id="_clip1">
            <rect x="0" y="0" width="640" height="480"/>
        </clipPath>
        <g clip-path="url(#_clip1)">
            <g transform="matrix(1.10309,0,0,7.09863,-0.551511,-113.878)">
                <g id="Layer1">
                    <g>
                        <g id="Shape1">
                            <path id="shapePath1" d="M0.985,78.378C16.526,78.378 42.86,82.14 63.147,78.378C78.268,75.573 93.592,69.304 104.427,59.194C124.987,40.01 130.696,36.542 145.708,40.01C164.697,44.396 166.589,59.194 187.471,78.378C198.476,88.488 213.307,59.194 228.751,59.194C244.195,59.194 256.058,83.688 270.353,78.378C297.476,68.302 303.165,25.286 332.032,20.826C356.565,17.035 373.062,47.331 394.516,59.194C407.821,66.55 420.673,78.378 436.118,78.378C457.959,78.378 496.919,59.194 518.76,59.194C534.205,59.194 560.189,78.378 580.909,78.378" style="fill:rgb(251,0,68);fill-opacity:0.87;"/>
                        </g>
                        <g id="Shape2">
                            <path id="shapePath2" d="M0.5,78.267L62.722,78.267C109.1,78.267 124.944,41.812 166.426,23.584C203.528,7.281 207.907,60.039 228.648,78.267C246.274,93.757 268.203,16.042 292.78,16.042C313.816,16.042 311.611,20.5 353.093,60.039C372.975,78.991 394.574,78.267 415.315,78.267C437.177,78.267 476.415,60.039 498.278,60.039C520.14,60.039 544.944,73.71 560.5,78.267" style="fill:url(#_Radial2);"/>
                        </g>
                        <g id="Shape3">
                            <path id="shapePath3" d="M4.642,78.466C-16.093,78.466 46.732,83.043 66.848,78.466C102.958,70.251 133.304,40.727 170.525,40.727C195.445,40.727 208.149,74.738 232.731,78.466C254.29,81.736 273.08,59.597 294.937,59.597C310.392,59.597 321.162,80.778 336.407,78.466C366.897,73.842 388.859,45.352 419.348,40.727C434.593,38.415 467.204,54.373 481.554,59.597C501.848,66.984 522.556,73.642 543.76,78.466C550.466,79.992 564.495,78.466 564.495,78.466L4.642,78.466Z" style="fill:rgb(9,252,131);"/>
                        </g>
                        <g id="Shape4">
                            <path id="shapePath4" d="M0.5,79.382C0.5,79.382 43.793,81.898 65.115,79.382C94.42,75.923 121.667,61.588 151.269,61.588C173.973,61.588 193.181,79.382 215.885,79.382C231.938,79.382 242.908,61.588 258.962,61.588C275.015,61.588 286.464,82.598 302.038,79.382C321.739,75.313 325.203,47.085 345.115,43.795C367.378,40.117 387.027,61.588 409.731,61.588C432.434,61.588 458.292,30.533 474.346,43.795C495.885,61.588 560.5,79.382 560.5,79.382L0.5,79.382Z" style="fill:rgb(252,250,252);fill-opacity:0.76;"/>
                        </g>
                    </g>
                </g>
            </g>
        </g>
    </g>
    <g id="Layer2">
    </g>
    <g id="Layer3">
    </g>
    <g id="Layer4">
    </g>
    <defs>
        <radialGradient id="_Radial2" cx="0" cy="0" r="1" gradientUnits="userSpaceOnUse" gradientTransform="matrix(291.115,0,0,291.115,285.313,39.062)"><stop offset="0" style="stop-color:white;stop-opacity:1"/><stop offset="0.1" style="stop-color:rgb(9,122,252);stop-opacity:0.87"/><stop offset="1" style="stop-color:rgb(9,122,252);stop-opacity:0.87"/></radialGradient>
    </defs>
</svg>
